<svg xmlns="http://www.w3.org/2000/svg" version="1.1" xmlns:xlink="http://www.w3.org/1999/xlink" xmlns:svgjs="http://svgjs.dev/svgjs" width="1500" height="204" viewBox="0 0 1500 204"><g transform="matrix(1,0,0,1,-0.9090909090909918,-0.669601589700278)"><svg viewBox="0 0 396 54" data-background-color="#000000" preserveAspectRatio="xMidYMid meet" height="204" width="1500" xmlns="http://www.w3.org/2000/svg" xmlns:xlink="http://www.w3.org/1999/xlink"><g id="tight-bounds" transform="matrix(1,0,0,1,0.2400000000000091,0.1772474796265442)"><svg viewBox="0 0 395.52 53.64550504074689" height="53.64550504074689" width="395.52"><g><svg viewBox="0 0 470.90984683317464 63.870844867582974" height="53.64550504074689" width="395.52"><g transform="matrix(1,0,0,1,75.38984683317466,7.538613851827019)"><svg viewBox="0 0 395.52 48.793617163928936" height="48.793617163928936" width="395.52"><g id="textblocktransform"><svg viewBox="0 0 395.52 48.793617163928936" height="48.793617163928936" width="395.52" id="textblock"><g><svg viewBox="0 0 395.52 48.793617163928936" height="48.793617163928936" width="395.52"><g transform="matrix(1,0,0,1,0,0)"><svg width="395.52" viewBox="1.8 -36.3 298.27 36.8" height="48.793617163928936" data-palette-color="url(#efcae76a-6352-418f-a3c3-5355318e528e)"><g class="wordmark-text-0" data-fill-palette-color="primary" id="text-0"></g></svg></g></svg></g></svg></g></svg></g><g><svg viewBox="0 0 63.870844867582974 63.870844867582974" height="63.870844867582974" width="63.870844867582974"><g><svg xmlns="http://www.w3.org/2000/svg" xmlns:xlink="http://www.w3.org/1999/xlink" version="1.1" x="0" y="0" viewBox="13.928 13.928 72.144 72.144" enable-background="new 0 0 100 100" xml:space="preserve" height="63.870844867582974" width="63.870844867582974" class="icon-icon-0" data-fill-palette-color="accent" id="icon-0"></svg></g></svg></g></svg></g><defs></defs><mask id="f4813cc5-064c-4ce1-9d66-bbc57258a807"><g id="SvgjsG1422"><svg viewBox="0 0 395.52 53.64550504074689" height="53.64550504074689" width="395.52"><g><svg viewBox="0 0 470.90984683317464 63.870844867582974" height="53.64550504074689" width="395.52"><g transform="matrix(1,0,0,1,75.38984683317466,7.538613851827019)"><svg viewBox="0 0 395.52 48.793617163928936" height="48.793617163928936" width="395.52"><g id="SvgjsG1421"><svg viewBox="0 0 395.52 48.793617163928936" height="48.793617163928936" width="395.52" id="SvgjsSvg1420"><g><svg viewBox="0 0 395.52 48.793617163928936" height="48.793617163928936" width="395.52"><g transform="matrix(1,0,0,1,0,0)"><svg width="395.52" viewBox="1.8 -36.3 298.27 36.8" height="48.793617163928936" data-palette-color="url(#efcae76a-6352-418f-a3c3-5355318e528e)"><g class="wordmark-text-0" data-fill-palette-color="primary" id="SvgjsG1419"><path d="M16.05 0.5L16.05 0.5Q11.4 0.5 8.28-0.88 5.15-2.25 3.53-4.48 1.9-6.7 1.8-9.15L1.8-9.15Q1.8-9.6 2.1-9.9 2.4-10.2 2.85-10.2L2.85-10.2 7.3-10.2Q7.95-10.2 8.28-9.93 8.6-9.65 8.85-9.25L8.85-9.25Q9.15-8.3 10-7.38 10.85-6.45 12.33-5.85 13.8-5.25 16.05-5.25L16.05-5.25Q19.65-5.25 21.43-6.45 23.2-7.65 23.2-9.7L23.2-9.7Q23.2-11.15 22.25-12.03 21.3-12.9 19.33-13.63 17.35-14.35 14.1-15.15L14.1-15.15Q10.35-16.05 7.83-17.32 5.3-18.6 4.03-20.55 2.75-22.5 2.75-25.5L2.75-25.5Q2.75-28.4 4.33-30.65 5.9-32.9 8.83-34.2 11.75-35.5 15.8-35.5L15.8-35.5Q19.05-35.5 21.55-34.63 24.05-33.75 25.7-32.33 27.35-30.9 28.23-29.28 29.1-27.65 29.15-26.1L29.15-26.1Q29.15-25.7 28.88-25.38 28.6-25.05 28.1-25.05L28.1-25.05 23.45-25.05Q23.05-25.05 22.65-25.25 22.25-25.45 22-26L22-26Q21.7-27.55 20.05-28.65 18.4-29.75 15.8-29.75L15.8-29.75Q13.1-29.75 11.45-28.75 9.8-27.75 9.8-25.65L9.8-25.65Q9.8-24.25 10.63-23.33 11.45-22.4 13.28-21.7 15.1-21 18.1-20.2L18.1-20.2Q22.35-19.25 25.05-18 27.75-16.75 29-14.83 30.25-12.9 30.25-9.95L30.25-9.95Q30.25-6.65 28.48-4.33 26.7-2 23.5-0.75 20.3 0.5 16.05 0.5ZM46.9 0.5L46.9 0.5Q42.9 0.5 40.17-0.9 37.45-2.3 36.02-4.85 34.6-7.4 34.4-10.8L34.4-10.8Q34.35-11.7 34.35-13 34.35-14.3 34.4-15.2L34.4-15.2Q34.6-18.65 36.07-21.18 37.55-23.7 40.27-25.1 43-26.5 46.9-26.5L46.9-26.5Q50.8-26.5 53.52-25.1 56.25-23.7 57.72-21.18 59.2-18.65 59.4-15.2L59.4-15.2Q59.45-14.3 59.45-13 59.45-11.7 59.4-10.8L59.4-10.8Q59.2-7.4 57.77-4.85 56.35-2.3 53.62-0.9 50.9 0.5 46.9 0.5ZM46.9-4.45L46.9-4.45Q49.55-4.45 51-6.13 52.45-7.8 52.6-11.05L52.6-11.05Q52.65-11.8 52.65-13 52.65-14.2 52.6-14.95L52.6-14.95Q52.45-18.2 51-19.88 49.55-21.55 46.9-21.55L46.9-21.55Q44.25-21.55 42.8-19.88 41.35-18.2 41.2-14.95L41.2-14.95Q41.15-14.2 41.15-13 41.15-11.8 41.2-11.05L41.2-11.05Q41.35-7.8 42.8-6.13 44.25-4.45 46.9-4.45ZM76.25 0.5L76.25 0.5Q72.65 0.5 69.92-0.85 67.2-2.2 65.67-4.78 64.15-7.35 64-11L64-11Q63.95-11.75 63.95-12.98 63.95-14.2 64-15L64-15Q64.15-18.65 65.67-21.23 67.2-23.8 69.92-25.15 72.65-26.5 76.25-26.5L76.25-26.5Q79.45-26.5 81.7-25.63 83.95-24.75 85.4-23.38 86.85-22 87.57-20.53 88.3-19.05 88.35-17.85L88.35-17.85Q88.4-17.3 88.02-16.98 87.65-16.65 87.15-16.65L87.15-16.65 82.75-16.65Q82.25-16.65 81.97-16.9 81.7-17.15 81.45-17.65L81.45-17.65Q80.7-19.65 79.47-20.48 78.25-21.3 76.35-21.3L76.35-21.3Q73.85-21.3 72.37-19.73 70.9-18.15 70.8-14.75L70.8-14.75Q70.7-12.85 70.8-11.25L70.8-11.25Q70.9-7.8 72.37-6.25 73.85-4.7 76.35-4.7L76.35-4.7Q78.3-4.7 79.5-5.53 80.7-6.35 81.45-8.35L81.45-8.35Q81.7-8.85 81.97-9.1 82.25-9.35 82.75-9.35L82.75-9.35 87.15-9.35Q87.65-9.35 88.02-9.03 88.4-8.7 88.35-8.15L88.35-8.15Q88.3-7.25 87.87-6.13 87.45-5 86.52-3.83 85.6-2.65 84.2-1.68 82.8-0.7 80.82-0.1 78.85 0.5 76.25 0.5ZM98.89 0L94.74 0Q94.24 0 93.89-0.35 93.54-0.7 93.54-1.2L93.54-1.2 93.54-24.8Q93.54-25.3 93.89-25.65 94.24-26 94.74-26L94.74-26 98.89-26Q99.44-26 99.77-25.65 100.09-25.3 100.09-24.8L100.09-24.8 100.09-1.2Q100.09-0.7 99.77-0.35 99.44 0 98.89 0L98.89 0ZM99.09-30.3L94.54-30.3Q94.04-30.3 93.69-30.65 93.34-31 93.34-31.5L93.34-31.5 93.34-35.1Q93.34-35.6 93.69-35.95 94.04-36.3 94.54-36.3L94.54-36.3 99.09-36.3Q99.64-36.3 99.99-35.95 100.34-35.6 100.34-35.1L100.34-35.1 100.34-31.5Q100.34-31 99.99-30.65 99.64-30.3 99.09-30.3L99.09-30.3ZM114.29 0.5L114.29 0.5Q111.69 0.5 109.59-0.53 107.49-1.55 106.27-3.28 105.04-5 105.04-7.15L105.04-7.15Q105.04-10.65 107.89-12.73 110.74-14.8 115.34-15.5L115.34-15.5 122.19-16.5 122.19-17.55Q122.19-19.65 121.14-20.8 120.09-21.95 117.54-21.95L117.54-21.95Q115.74-21.95 114.62-21.23 113.49-20.5 112.94-19.3L112.94-19.3Q112.54-18.65 111.79-18.65L111.79-18.65 107.84-18.65Q107.29-18.65 107.02-18.95 106.74-19.25 106.74-19.75L106.74-19.75Q106.79-20.55 107.42-21.7 108.04-22.85 109.32-23.93 110.59-25 112.64-25.75 114.69-26.5 117.59-26.5L117.59-26.5Q120.74-26.5 122.92-25.73 125.09-24.95 126.39-23.65 127.69-22.35 128.29-20.6 128.89-18.85 128.89-16.9L128.89-16.9 128.89-1.2Q128.89-0.7 128.54-0.35 128.19 0 127.69 0L127.69 0 123.64 0Q123.09 0 122.77-0.35 122.44-0.7 122.44-1.2L122.44-1.2 122.44-3.15Q121.79-2.25 120.69-1.4 119.59-0.55 118.02-0.03 116.44 0.5 114.29 0.5ZM115.99-4.25L115.99-4.25Q117.74-4.25 119.17-5 120.59-5.75 121.42-7.33 122.24-8.9 122.24-11.3L122.24-11.3 122.24-12.35 117.24-11.55Q114.29-11.1 112.84-10.1 111.39-9.1 111.39-7.65L111.39-7.65Q111.39-6.55 112.07-5.78 112.74-5 113.79-4.63 114.84-4.25 115.99-4.25ZM140.69 0L136.54 0Q136.04 0 135.69-0.35 135.34-0.7 135.34-1.2L135.34-1.2 135.34-34.3Q135.34-34.8 135.69-35.15 136.04-35.5 136.54-35.5L136.54-35.5 140.69-35.5Q141.19-35.5 141.54-35.15 141.89-34.8 141.89-34.3L141.89-34.3 141.89-1.2Q141.89-0.7 141.54-0.35 141.19 0 140.69 0L140.69 0ZM162.94 0.5L162.94 0.5Q160.04 0.5 158.11-0.5 156.19-1.5 154.94-3.05L154.94-3.05 154.94-1.2Q154.94-0.7 154.61-0.35 154.29 0 153.74 0L153.74 0 149.79 0Q149.29 0 148.94-0.35 148.59-0.7 148.59-1.2L148.59-1.2 148.59-34.3Q148.59-34.8 148.94-35.15 149.29-35.5 149.79-35.5L149.79-35.5 154.04-35.5Q154.59-35.5 154.91-35.15 155.24-34.8 155.24-34.3L155.24-34.3 155.24-23.2Q156.49-24.65 158.36-25.58 160.24-26.5 162.94-26.5L162.94-26.5Q165.59-26.5 167.54-25.6 169.49-24.7 170.81-23.08 172.14-21.45 172.84-19.3 173.54-17.15 173.59-14.65L173.59-14.65Q173.64-13.75 173.64-13.03 173.64-12.3 173.59-11.4L173.59-11.4Q173.49-8.8 172.79-6.63 172.09-4.45 170.79-2.85 169.49-1.25 167.54-0.38 165.59 0.5 162.94 0.5ZM161.09-4.85L161.09-4.85Q163.24-4.85 164.44-5.78 165.64-6.7 166.19-8.2 166.74-9.7 166.84-11.5L166.84-11.5Q166.89-13 166.84-14.5L166.84-14.5Q166.74-16.3 166.19-17.8 165.64-19.3 164.44-20.23 163.24-21.15 161.09-21.15L161.09-21.15Q159.09-21.15 157.84-20.25 156.59-19.35 155.94-17.98 155.29-16.6 155.24-15.1L155.24-15.1Q155.19-14.2 155.19-13.18 155.19-12.15 155.24-11.25L155.24-11.25Q155.34-9.7 155.91-8.22 156.49-6.75 157.76-5.8 159.04-4.85 161.09-4.85ZM184.58 0L180.43 0Q179.93 0 179.58-0.35 179.23-0.7 179.23-1.2L179.23-1.2 179.23-34.3Q179.23-34.8 179.58-35.15 179.93-35.5 180.43-35.5L180.43-35.5 184.58-35.5Q185.08-35.5 185.43-35.15 185.78-34.8 185.78-34.3L185.78-34.3 185.78-1.2Q185.78-0.7 185.43-0.35 185.08 0 184.58 0L184.58 0ZM203.63 0.5L203.63 0.5Q198.08 0.5 194.83-2.7 191.58-5.9 191.33-11.8L191.33-11.8Q191.28-12.3 191.28-13.08 191.28-13.85 191.33-14.3L191.33-14.3Q191.53-18.1 193.06-20.83 194.58-23.55 197.28-25.03 199.98-26.5 203.63-26.5L203.63-26.5Q207.68-26.5 210.43-24.83 213.18-23.15 214.58-20.18 215.98-17.2 215.98-13.3L215.98-13.3 215.98-12.25Q215.98-11.75 215.63-11.4 215.28-11.05 214.73-11.05L214.73-11.05 198.13-11.05Q198.13-11.05 198.13-10.9 198.13-10.75 198.13-10.65L198.13-10.65Q198.18-8.9 198.81-7.43 199.43-5.95 200.66-5.05 201.88-4.15 203.58-4.15L203.58-4.15Q204.98-4.15 205.93-4.58 206.88-5 207.48-5.55 208.08-6.1 208.33-6.45L208.33-6.45Q208.78-7.05 209.06-7.18 209.33-7.3 209.88-7.3L209.88-7.3 214.18-7.3Q214.68-7.3 215.01-7 215.33-6.7 215.28-6.25L215.28-6.25Q215.23-5.45 214.46-4.3 213.68-3.15 212.23-2.05 210.78-0.95 208.61-0.23 206.43 0.5 203.63 0.5ZM198.13-15.4L198.13-15.25 209.18-15.25 209.18-15.4Q209.18-17.35 208.53-18.82 207.88-20.3 206.63-21.13 205.38-21.95 203.63-21.95L203.63-21.95Q201.88-21.95 200.63-21.13 199.38-20.3 198.76-18.82 198.13-17.35 198.13-15.4L198.13-15.4ZM226.88 0L222.48 0Q221.98 0 221.63-0.35 221.28-0.7 221.28-1.2L221.28-1.2 221.28-24.8Q221.28-25.3 221.63-25.65 221.98-26 222.48-26L222.48-26 226.58-26Q227.08-26 227.43-25.65 227.78-25.3 227.78-24.8L227.78-24.8 227.78-22.75Q229.08-24.35 231.1-25.43 233.13-26.5 236.13-26.5L236.13-26.5Q239.18-26.5 241.43-25.13 243.68-23.75 244.9-21.25 246.13-18.75 246.13-15.25L246.13-15.25 246.13-1.2Q246.13-0.7 245.78-0.35 245.43 0 244.93 0L244.93 0 240.53 0Q240.03 0 239.68-0.35 239.33-0.7 239.33-1.2L239.33-1.2 239.33-14.95Q239.33-17.85 237.9-19.5 236.48-21.15 233.78-21.15L233.78-21.15Q231.18-21.15 229.63-19.5 228.08-17.85 228.08-14.95L228.08-14.95 228.08-1.2Q228.08-0.7 227.73-0.35 227.38 0 226.88 0L226.88 0ZM262.13 0.5L262.13 0.5Q259.53 0.5 257.55-0.38 255.58-1.25 254.28-2.85 252.98-4.45 252.28-6.63 251.58-8.8 251.48-11.4L251.48-11.4Q251.43-12.3 251.43-13.03 251.43-13.75 251.48-14.65L251.48-14.65Q251.58-17.15 252.25-19.3 252.93-21.45 254.25-23.08 255.58-24.7 257.55-25.6 259.53-26.5 262.13-26.5L262.13-26.5Q264.82-26.5 266.7-25.58 268.57-24.65 269.82-23.2L269.82-23.2 269.82-34.3Q269.82-34.8 270.15-35.15 270.48-35.5 271.03-35.5L271.03-35.5 275.28-35.5Q275.78-35.5 276.13-35.15 276.48-34.8 276.48-34.3L276.48-34.3 276.48-1.2Q276.48-0.7 276.13-0.35 275.78 0 275.28 0L275.28 0 271.32 0Q270.78 0 270.45-0.35 270.13-0.7 270.13-1.2L270.13-1.2 270.13-3.05Q268.88-1.5 266.95-0.5 265.03 0.5 262.13 0.5ZM263.98-4.85L263.98-4.85Q266.07-4.85 267.32-5.8 268.57-6.75 269.18-8.22 269.78-9.7 269.82-11.25L269.82-11.25Q269.88-12.15 269.88-13.18 269.88-14.2 269.82-15.1L269.82-15.1Q269.78-16.6 269.13-17.98 268.48-19.35 267.23-20.25 265.98-21.15 263.98-21.15L263.98-21.15Q261.88-21.15 260.65-20.23 259.43-19.3 258.88-17.8 258.32-16.3 258.23-14.5L258.23-14.5Q258.18-13 258.23-11.5L258.23-11.5Q258.32-9.7 258.88-8.2 259.43-6.7 260.65-5.78 261.88-4.85 263.98-4.85ZM288.67 0L284.32 0Q283.82 0 283.47-0.35 283.12-0.7 283.12-1.2L283.12-1.2 283.12-24.75Q283.12-25.3 283.47-25.65 283.82-26 284.32-26L284.32-26 288.37-26Q288.87-26 289.25-25.65 289.62-25.3 289.62-24.75L289.62-24.75 289.62-22.7Q290.77-24.3 292.6-25.15 294.42-26 296.82-26L296.82-26 298.87-26Q299.42-26 299.75-25.65 300.07-25.3 300.07-24.8L300.07-24.8 300.07-21.2Q300.07-20.7 299.75-20.35 299.42-20 298.87-20L298.87-20 294.97-20Q292.57-20 291.25-18.68 289.92-17.35 289.92-14.95L289.92-14.95 289.92-1.2Q289.92-0.7 289.57-0.35 289.22 0 288.67 0L288.67 0Z" fill="white"></path></g></svg></g></svg></g></svg></g></svg></g><g><svg viewBox="0 0 63.870844867582974 63.870844867582974" height="63.870844867582974" width="63.870844867582974"><g><svg xmlns="http://www.w3.org/2000/svg" xmlns:xlink="http://www.w3.org/1999/xlink" version="1.1" x="0" y="0" viewBox="13.928 13.928 72.144 72.144" enable-background="new 0 0 100 100" xml:space="preserve" height="63.870844867582974" width="63.870844867582974" class="icon-icon-0" data-fill-palette-color="accent" id="SvgjsSvg1418"><g fill="black"><path fill="black" d="M86.072 50c0 19.922-16.15 36.072-36.072 36.072S13.928 69.922 13.928 50 30.078 13.928 50 13.928 86.072 30.078 86.072 50zM50 21.049c-15.989 0-28.951 12.962-28.951 28.951S34.011 78.951 50 78.951 78.951 65.989 78.951 50 65.989 21.049 50 21.049z"></path><path fill="black" d="M75.899 50c0 14.303-11.595 25.899-25.899 25.899S24.101 64.303 24.101 50 35.697 24.101 50 24.101 75.899 35.697 75.899 50zM50 42.074c-4.377 0-7.926 3.548-7.926 7.926s3.548 7.926 7.926 7.926 7.926-3.548 7.926-7.926S54.377 42.074 50 42.074zM59.827 57.392c-1.345 0-2.435 1.09-2.435 2.435s1.09 2.435 2.435 2.435 2.435-1.09 2.435-2.435S61.172 57.392 59.827 57.392zM46.697 38.148l0.046-8.32c0 0-3.876 0.245-8.482 3.371-4.964 3.369-6.525 7.523-6.525 7.523l7.722 2.896c0 0 0.813-1.819 3.354-3.681C45.091 38.267 46.697 38.148 46.697 38.148zM38.515 45.41l-7.561-2.919c0 0-0.846 1.378-1.08 3.185C29.578 47.952 29.552 49 29.552 49h8.111c0 0-0.023-0.711 0.184-1.745C38.071 46.135 38.515 45.41 38.515 45.41z"></path></g></svg></g></svg></g></svg></g><defs><mask></mask></defs></svg><rect width="395.52" height="53.64550504074689" fill="black" stroke="none" visibility="hidden"></rect></g></mask><linearGradient x1="0" x2="1" y1="0.548" y2="0.55" id="efcae76a-6352-418f-a3c3-5355318e528e"><stop stop-color="#ff6cab" offset="0"></stop><stop stop-color="#7366ff" offset="1"></stop></linearGradient><rect width="395.52" height="53.64550504074689" fill="url(#efcae76a-6352-418f-a3c3-5355318e528e)" mask="url(#f4813cc5-064c-4ce1-9d66-bbc57258a807)" data-fill-palette-color="primary"></rect><mask id="9f48fdde-290e-4aa4-9c5e-298591c89907"><g id="SvgjsG1443"><svg viewBox="0 0 395.52 53.64550504074689" height="53.64550504074689" width="395.52"><g><svg viewBox="0 0 470.90984683317464 63.870844867582974" height="53.64550504074689" width="395.52"><g transform="matrix(1,0,0,1,75.38984683317466,7.538613851827019)"><svg viewBox="0 0 395.52 48.793617163928936" height="48.793617163928936" width="395.52"><g id="SvgjsG1442"><svg viewBox="0 0 395.52 48.793617163928936" height="48.793617163928936" width="395.52" id="SvgjsSvg1441"><g><svg viewBox="0 0 395.52 48.793617163928936" height="48.793617163928936" width="395.52"><g transform="matrix(1,0,0,1,0,0)"><svg width="395.52" viewBox="1.8 -36.3 298.27 36.8" height="48.793617163928936" data-palette-color="url(#efcae76a-6352-418f-a3c3-5355318e528e)"><g class="wordmark-text-0" data-fill-palette-color="primary" id="SvgjsG1440"></g></svg></g></svg></g></svg></g></svg></g><g><svg viewBox="0 0 63.870844867582974 63.870844867582974" height="63.870844867582974" width="63.870844867582974"><g><svg xmlns="http://www.w3.org/2000/svg" xmlns:xlink="http://www.w3.org/1999/xlink" version="1.1" x="0" y="0" viewBox="13.928 13.928 72.144 72.144" enable-background="new 0 0 100 100" xml:space="preserve" height="63.870844867582974" width="63.870844867582974" class="icon-icon-0" data-fill-palette-color="accent" id="SvgjsSvg1439"><g fill="white"><path fill="white" d="M86.072 50c0 19.922-16.15 36.072-36.072 36.072S13.928 69.922 13.928 50 30.078 13.928 50 13.928 86.072 30.078 86.072 50zM50 21.049c-15.989 0-28.951 12.962-28.951 28.951S34.011 78.951 50 78.951 78.951 65.989 78.951 50 65.989 21.049 50 21.049z"></path><path fill="white" d="M75.899 50c0 14.303-11.595 25.899-25.899 25.899S24.101 64.303 24.101 50 35.697 24.101 50 24.101 75.899 35.697 75.899 50zM50 42.074c-4.377 0-7.926 3.548-7.926 7.926s3.548 7.926 7.926 7.926 7.926-3.548 7.926-7.926S54.377 42.074 50 42.074zM59.827 57.392c-1.345 0-2.435 1.09-2.435 2.435s1.09 2.435 2.435 2.435 2.435-1.09 2.435-2.435S61.172 57.392 59.827 57.392zM46.697 38.148l0.046-8.32c0 0-3.876 0.245-8.482 3.371-4.964 3.369-6.525 7.523-6.525 7.523l7.722 2.896c0 0 0.813-1.819 3.354-3.681C45.091 38.267 46.697 38.148 46.697 38.148zM38.515 45.41l-7.561-2.919c0 0-0.846 1.378-1.08 3.185C29.578 47.952 29.552 49 29.552 49h8.111c0 0-0.023-0.711 0.184-1.745C38.071 46.135 38.515 45.41 38.515 45.41z"></path></g></svg></g></svg></g></svg></g><defs><mask></mask></defs><mask><g id="SvgjsG1438"><svg viewBox="0 0 395.52 53.64550504074689" height="53.64550504074689" width="395.52"><g><svg viewBox="0 0 470.90984683317464 63.870844867582974" height="53.64550504074689" width="395.52"><g transform="matrix(1,0,0,1,75.38984683317466,7.538613851827019)"><svg viewBox="0 0 395.52 48.793617163928936" height="48.793617163928936" width="395.52"><g id="SvgjsG1437"><svg viewBox="0 0 395.52 48.793617163928936" height="48.793617163928936" width="395.52" id="SvgjsSvg1436"><g><svg viewBox="0 0 395.52 48.793617163928936" height="48.793617163928936" width="395.52"><g transform="matrix(1,0,0,1,0,0)"><svg width="395.52" viewBox="1.8 -36.3 298.27 36.8" height="48.793617163928936" data-palette-color="url(#efcae76a-6352-418f-a3c3-5355318e528e)"><g class="wordmark-text-0" data-fill-palette-color="primary" id="SvgjsG1435"><path d="M16.05 0.5L16.05 0.5Q11.4 0.5 8.28-0.88 5.15-2.25 3.53-4.48 1.9-6.7 1.8-9.15L1.8-9.15Q1.8-9.6 2.1-9.9 2.4-10.2 2.85-10.2L2.85-10.2 7.3-10.2Q7.95-10.2 8.28-9.93 8.6-9.65 8.85-9.25L8.85-9.25Q9.15-8.3 10-7.38 10.85-6.45 12.33-5.85 13.8-5.25 16.05-5.25L16.05-5.25Q19.65-5.25 21.43-6.45 23.2-7.65 23.2-9.7L23.2-9.7Q23.2-11.15 22.25-12.03 21.3-12.9 19.33-13.63 17.35-14.35 14.1-15.15L14.1-15.15Q10.35-16.05 7.83-17.32 5.3-18.6 4.03-20.55 2.75-22.5 2.75-25.5L2.75-25.5Q2.75-28.4 4.33-30.65 5.9-32.9 8.83-34.2 11.75-35.5 15.8-35.5L15.8-35.5Q19.05-35.5 21.55-34.63 24.05-33.75 25.7-32.33 27.35-30.9 28.23-29.28 29.1-27.65 29.15-26.1L29.15-26.1Q29.15-25.7 28.88-25.38 28.6-25.05 28.1-25.05L28.1-25.05 23.45-25.05Q23.05-25.05 22.65-25.25 22.25-25.45 22-26L22-26Q21.7-27.55 20.05-28.65 18.4-29.75 15.8-29.75L15.8-29.75Q13.1-29.75 11.45-28.75 9.8-27.75 9.8-25.65L9.8-25.65Q9.8-24.25 10.63-23.33 11.45-22.4 13.28-21.7 15.1-21 18.1-20.2L18.1-20.2Q22.35-19.25 25.05-18 27.75-16.75 29-14.83 30.25-12.9 30.25-9.95L30.25-9.95Q30.25-6.65 28.48-4.33 26.7-2 23.5-0.75 20.3 0.5 16.05 0.5ZM46.9 0.5L46.9 0.5Q42.9 0.5 40.17-0.9 37.45-2.3 36.02-4.85 34.6-7.4 34.4-10.8L34.4-10.8Q34.35-11.7 34.35-13 34.35-14.3 34.4-15.2L34.4-15.2Q34.6-18.65 36.07-21.18 37.55-23.7 40.27-25.1 43-26.5 46.9-26.5L46.9-26.5Q50.8-26.5 53.52-25.1 56.25-23.7 57.72-21.18 59.2-18.65 59.4-15.2L59.4-15.2Q59.45-14.3 59.45-13 59.45-11.7 59.4-10.8L59.4-10.8Q59.2-7.4 57.77-4.85 56.35-2.3 53.62-0.9 50.9 0.5 46.9 0.5ZM46.9-4.45L46.9-4.45Q49.55-4.45 51-6.13 52.45-7.8 52.6-11.05L52.6-11.05Q52.65-11.8 52.65-13 52.65-14.2 52.6-14.95L52.6-14.95Q52.45-18.2 51-19.88 49.55-21.55 46.9-21.55L46.9-21.55Q44.25-21.55 42.8-19.88 41.35-18.2 41.2-14.95L41.2-14.95Q41.15-14.2 41.15-13 41.15-11.8 41.2-11.05L41.2-11.05Q41.35-7.8 42.8-6.13 44.25-4.45 46.9-4.45ZM76.25 0.5L76.25 0.5Q72.65 0.5 69.92-0.85 67.2-2.2 65.67-4.78 64.15-7.35 64-11L64-11Q63.95-11.75 63.95-12.98 63.95-14.2 64-15L64-15Q64.15-18.65 65.67-21.23 67.2-23.8 69.92-25.15 72.65-26.5 76.25-26.5L76.25-26.5Q79.45-26.5 81.7-25.63 83.95-24.75 85.4-23.38 86.85-22 87.57-20.53 88.3-19.05 88.35-17.85L88.35-17.85Q88.4-17.3 88.02-16.98 87.65-16.65 87.15-16.65L87.15-16.65 82.75-16.65Q82.25-16.65 81.97-16.9 81.7-17.15 81.45-17.65L81.45-17.65Q80.7-19.65 79.47-20.48 78.25-21.3 76.35-21.3L76.35-21.3Q73.85-21.3 72.37-19.73 70.9-18.15 70.8-14.75L70.8-14.75Q70.7-12.85 70.8-11.25L70.8-11.25Q70.9-7.8 72.37-6.25 73.85-4.7 76.35-4.7L76.35-4.7Q78.3-4.7 79.5-5.53 80.7-6.35 81.45-8.35L81.45-8.35Q81.7-8.85 81.97-9.1 82.25-9.35 82.75-9.35L82.75-9.35 87.15-9.35Q87.65-9.35 88.02-9.03 88.4-8.7 88.35-8.15L88.35-8.15Q88.3-7.25 87.87-6.13 87.45-5 86.52-3.83 85.6-2.65 84.2-1.68 82.8-0.7 80.82-0.1 78.85 0.5 76.25 0.5ZM98.89 0L94.74 0Q94.24 0 93.89-0.35 93.54-0.7 93.54-1.2L93.54-1.2 93.54-24.8Q93.54-25.3 93.89-25.65 94.24-26 94.74-26L94.74-26 98.89-26Q99.44-26 99.77-25.65 100.09-25.3 100.09-24.8L100.09-24.8 100.09-1.2Q100.09-0.7 99.77-0.35 99.44 0 98.89 0L98.89 0ZM99.09-30.3L94.54-30.3Q94.04-30.3 93.69-30.65 93.34-31 93.34-31.5L93.34-31.5 93.34-35.1Q93.34-35.6 93.69-35.95 94.04-36.3 94.54-36.3L94.54-36.3 99.09-36.3Q99.64-36.3 99.99-35.95 100.34-35.6 100.34-35.1L100.34-35.1 100.34-31.5Q100.34-31 99.99-30.65 99.64-30.3 99.09-30.3L99.09-30.3ZM114.29 0.5L114.29 0.5Q111.69 0.5 109.59-0.53 107.49-1.55 106.27-3.28 105.04-5 105.04-7.15L105.04-7.15Q105.04-10.65 107.89-12.73 110.74-14.8 115.34-15.5L115.34-15.5 122.19-16.5 122.19-17.55Q122.19-19.65 121.14-20.8 120.09-21.95 117.54-21.95L117.54-21.95Q115.74-21.95 114.62-21.23 113.49-20.5 112.94-19.3L112.94-19.3Q112.54-18.65 111.79-18.65L111.79-18.65 107.84-18.65Q107.29-18.65 107.02-18.95 106.74-19.25 106.74-19.75L106.74-19.75Q106.79-20.55 107.42-21.7 108.04-22.85 109.32-23.93 110.59-25 112.64-25.75 114.69-26.5 117.59-26.5L117.59-26.5Q120.74-26.5 122.92-25.73 125.09-24.95 126.39-23.65 127.69-22.35 128.29-20.6 128.89-18.85 128.89-16.9L128.89-16.9 128.89-1.2Q128.89-0.7 128.54-0.35 128.19 0 127.69 0L127.69 0 123.64 0Q123.09 0 122.77-0.35 122.44-0.7 122.44-1.2L122.44-1.2 122.44-3.15Q121.79-2.25 120.69-1.4 119.59-0.55 118.02-0.03 116.44 0.5 114.29 0.5ZM115.99-4.25L115.99-4.25Q117.74-4.25 119.17-5 120.59-5.75 121.42-7.33 122.24-8.9 122.24-11.3L122.24-11.3 122.24-12.35 117.24-11.55Q114.29-11.1 112.84-10.1 111.39-9.1 111.39-7.65L111.39-7.65Q111.39-6.55 112.07-5.78 112.74-5 113.79-4.63 114.84-4.25 115.99-4.25ZM140.69 0L136.54 0Q136.04 0 135.69-0.35 135.34-0.7 135.34-1.2L135.34-1.2 135.34-34.3Q135.34-34.8 135.69-35.15 136.04-35.5 136.54-35.5L136.54-35.5 140.69-35.5Q141.19-35.5 141.54-35.15 141.89-34.8 141.89-34.3L141.89-34.3 141.89-1.2Q141.89-0.7 141.54-0.35 141.19 0 140.69 0L140.69 0ZM162.94 0.5L162.94 0.5Q160.04 0.5 158.11-0.5 156.19-1.5 154.94-3.05L154.94-3.05 154.94-1.2Q154.94-0.7 154.61-0.35 154.29 0 153.74 0L153.74 0 149.79 0Q149.29 0 148.94-0.35 148.59-0.7 148.59-1.2L148.59-1.2 148.59-34.3Q148.59-34.8 148.94-35.15 149.29-35.5 149.79-35.5L149.79-35.5 154.04-35.5Q154.59-35.5 154.91-35.15 155.24-34.8 155.24-34.3L155.24-34.3 155.24-23.2Q156.49-24.65 158.36-25.58 160.24-26.5 162.94-26.5L162.94-26.5Q165.59-26.5 167.54-25.6 169.49-24.7 170.81-23.08 172.14-21.45 172.84-19.3 173.54-17.15 173.59-14.65L173.59-14.65Q173.64-13.75 173.64-13.03 173.64-12.3 173.59-11.4L173.59-11.4Q173.49-8.8 172.79-6.63 172.09-4.45 170.79-2.85 169.49-1.25 167.54-0.38 165.59 0.5 162.94 0.5ZM161.09-4.85L161.09-4.85Q163.24-4.85 164.44-5.78 165.64-6.7 166.19-8.2 166.74-9.7 166.84-11.5L166.84-11.5Q166.89-13 166.84-14.5L166.84-14.5Q166.74-16.3 166.19-17.8 165.64-19.3 164.44-20.23 163.24-21.15 161.09-21.15L161.09-21.15Q159.09-21.15 157.84-20.25 156.59-19.35 155.94-17.98 155.29-16.6 155.24-15.1L155.24-15.1Q155.19-14.2 155.19-13.18 155.19-12.15 155.24-11.25L155.24-11.25Q155.34-9.7 155.91-8.22 156.49-6.75 157.76-5.8 159.04-4.85 161.09-4.85ZM184.58 0L180.43 0Q179.93 0 179.58-0.35 179.23-0.7 179.23-1.2L179.23-1.2 179.23-34.3Q179.23-34.8 179.58-35.15 179.93-35.5 180.43-35.5L180.43-35.5 184.58-35.5Q185.08-35.5 185.43-35.15 185.78-34.8 185.78-34.3L185.78-34.3 185.78-1.2Q185.78-0.7 185.43-0.35 185.08 0 184.58 0L184.58 0ZM203.63 0.5L203.63 0.5Q198.08 0.5 194.83-2.7 191.58-5.9 191.33-11.8L191.33-11.8Q191.28-12.3 191.28-13.08 191.28-13.85 191.33-14.3L191.33-14.3Q191.53-18.1 193.06-20.83 194.58-23.55 197.28-25.03 199.98-26.5 203.63-26.5L203.63-26.5Q207.68-26.5 210.43-24.83 213.18-23.15 214.58-20.18 215.98-17.2 215.98-13.3L215.98-13.3 215.98-12.25Q215.98-11.75 215.63-11.4 215.28-11.05 214.73-11.05L214.73-11.05 198.13-11.05Q198.13-11.05 198.13-10.9 198.13-10.75 198.13-10.65L198.13-10.65Q198.18-8.9 198.81-7.43 199.43-5.95 200.66-5.05 201.88-4.15 203.58-4.15L203.58-4.15Q204.98-4.15 205.93-4.58 206.88-5 207.48-5.55 208.08-6.1 208.33-6.45L208.33-6.45Q208.78-7.05 209.06-7.18 209.33-7.3 209.88-7.3L209.88-7.3 214.18-7.3Q214.68-7.3 215.01-7 215.33-6.7 215.28-6.25L215.28-6.25Q215.23-5.45 214.46-4.3 213.68-3.15 212.23-2.05 210.78-0.95 208.61-0.23 206.43 0.5 203.63 0.5ZM198.13-15.4L198.13-15.25 209.18-15.25 209.18-15.4Q209.18-17.35 208.53-18.82 207.88-20.3 206.63-21.13 205.38-21.95 203.63-21.95L203.63-21.95Q201.88-21.95 200.63-21.13 199.38-20.3 198.76-18.82 198.13-17.35 198.13-15.4L198.13-15.4ZM226.88 0L222.48 0Q221.98 0 221.63-0.35 221.28-0.7 221.28-1.2L221.28-1.2 221.28-24.8Q221.28-25.3 221.63-25.65 221.98-26 222.48-26L222.48-26 226.58-26Q227.08-26 227.43-25.65 227.78-25.3 227.78-24.8L227.78-24.8 227.78-22.75Q229.08-24.35 231.1-25.43 233.13-26.5 236.13-26.5L236.13-26.5Q239.18-26.5 241.43-25.13 243.68-23.75 244.9-21.25 246.13-18.75 246.13-15.25L246.13-15.25 246.13-1.2Q246.13-0.7 245.78-0.35 245.43 0 244.93 0L244.93 0 240.53 0Q240.03 0 239.68-0.35 239.33-0.7 239.33-1.2L239.33-1.2 239.33-14.95Q239.33-17.85 237.9-19.5 236.48-21.15 233.78-21.15L233.78-21.15Q231.18-21.15 229.63-19.5 228.08-17.85 228.08-14.95L228.08-14.95 228.08-1.2Q228.08-0.7 227.73-0.35 227.38 0 226.88 0L226.88 0ZM262.13 0.5L262.13 0.5Q259.53 0.5 257.55-0.38 255.58-1.25 254.28-2.85 252.98-4.45 252.28-6.63 251.58-8.8 251.48-11.4L251.48-11.4Q251.43-12.3 251.43-13.03 251.43-13.75 251.48-14.65L251.48-14.65Q251.58-17.15 252.25-19.3 252.93-21.45 254.25-23.08 255.58-24.7 257.55-25.6 259.53-26.5 262.13-26.5L262.13-26.5Q264.82-26.5 266.7-25.58 268.57-24.65 269.82-23.2L269.82-23.2 269.82-34.3Q269.82-34.8 270.15-35.15 270.48-35.5 271.03-35.5L271.03-35.5 275.28-35.5Q275.78-35.5 276.13-35.15 276.48-34.8 276.48-34.3L276.48-34.3 276.48-1.2Q276.48-0.7 276.13-0.35 275.78 0 275.28 0L275.28 0 271.32 0Q270.78 0 270.45-0.35 270.13-0.7 270.13-1.2L270.13-1.2 270.13-3.05Q268.88-1.5 266.95-0.5 265.03 0.5 262.13 0.5ZM263.98-4.85L263.98-4.85Q266.07-4.85 267.32-5.8 268.57-6.75 269.18-8.22 269.78-9.7 269.82-11.25L269.82-11.25Q269.88-12.15 269.88-13.18 269.88-14.2 269.82-15.1L269.82-15.1Q269.78-16.6 269.13-17.98 268.48-19.35 267.23-20.25 265.98-21.15 263.98-21.15L263.98-21.15Q261.88-21.15 260.65-20.23 259.43-19.3 258.88-17.8 258.32-16.3 258.23-14.5L258.23-14.5Q258.18-13 258.23-11.5L258.23-11.5Q258.32-9.7 258.88-8.2 259.43-6.7 260.65-5.78 261.88-4.85 263.98-4.85ZM288.67 0L284.32 0Q283.82 0 283.47-0.35 283.12-0.7 283.12-1.2L283.12-1.2 283.12-24.75Q283.12-25.3 283.47-25.65 283.82-26 284.32-26L284.32-26 288.37-26Q288.87-26 289.25-25.65 289.62-25.3 289.62-24.75L289.62-24.75 289.62-22.7Q290.77-24.3 292.6-25.15 294.42-26 296.82-26L296.82-26 298.87-26Q299.42-26 299.75-25.65 300.07-25.3 300.07-24.8L300.07-24.8 300.07-21.2Q300.07-20.7 299.75-20.35 299.42-20 298.87-20L298.87-20 294.97-20Q292.57-20 291.25-18.68 289.92-17.35 289.92-14.95L289.92-14.95 289.92-1.2Q289.92-0.7 289.57-0.35 289.22 0 288.67 0L288.67 0Z" fill="black"></path></g></svg></g></svg></g></svg></g></svg></g><g><svg viewBox="0 0 63.870844867582974 63.870844867582974" height="63.870844867582974" width="63.870844867582974"><g><svg xmlns="http://www.w3.org/2000/svg" xmlns:xlink="http://www.w3.org/1999/xlink" version="1.1" x="0" y="0" viewBox="13.928 13.928 72.144 72.144" enable-background="new 0 0 100 100" xml:space="preserve" height="63.870844867582974" width="63.870844867582974" class="icon-icon-0" data-fill-palette-color="accent" id="SvgjsSvg1434"><g fill="black"><path fill="black" d="M86.072 50c0 19.922-16.15 36.072-36.072 36.072S13.928 69.922 13.928 50 30.078 13.928 50 13.928 86.072 30.078 86.072 50zM50 21.049c-15.989 0-28.951 12.962-28.951 28.951S34.011 78.951 50 78.951 78.951 65.989 78.951 50 65.989 21.049 50 21.049z"></path><path fill="black" d="M75.899 50c0 14.303-11.595 25.899-25.899 25.899S24.101 64.303 24.101 50 35.697 24.101 50 24.101 75.899 35.697 75.899 50zM50 42.074c-4.377 0-7.926 3.548-7.926 7.926s3.548 7.926 7.926 7.926 7.926-3.548 7.926-7.926S54.377 42.074 50 42.074zM59.827 57.392c-1.345 0-2.435 1.09-2.435 2.435s1.09 2.435 2.435 2.435 2.435-1.09 2.435-2.435S61.172 57.392 59.827 57.392zM46.697 38.148l0.046-8.32c0 0-3.876 0.245-8.482 3.371-4.964 3.369-6.525 7.523-6.525 7.523l7.722 2.896c0 0 0.813-1.819 3.354-3.681C45.091 38.267 46.697 38.148 46.697 38.148zM38.515 45.41l-7.561-2.919c0 0-0.846 1.378-1.08 3.185C29.578 47.952 29.552 49 29.552 49h8.111c0 0-0.023-0.711 0.184-1.745C38.071 46.135 38.515 45.41 38.515 45.41z"></path></g></svg></g></svg></g></svg></g><defs><mask></mask></defs></svg><rect width="395.52" height="53.64550504074689" fill="black" stroke="none" visibility="hidden"></rect></g></mask></svg><rect width="395.52" height="53.64550504074689" fill="black" stroke="none" visibility="hidden"></rect></g></mask><linearGradient x1="0" x2="1" y1="0.548" y2="0.55" id="fc3d4af3-9d2a-4b16-9596-b2c6ba75ea64"><stop stop-color="#ff6cab" offset="0"></stop><stop stop-color="#7366ff" offset="1"></stop></linearGradient><rect width="395.52" height="53.64550504074689" fill="url(#fc3d4af3-9d2a-4b16-9596-b2c6ba75ea64)" mask="url(#9f48fdde-290e-4aa4-9c5e-298591c89907)" data-fill-palette-color="accent"></rect></svg><rect width="395.52" height="53.64550504074689" fill="none" stroke="none" visibility="hidden"></rect></g></svg></g></svg>